<?xml version="1.0" encoding="UTF-8" standalone="no"?>
<svg
   xmlns:dc="http://purl.org/dc/elements/1.1/"
   xmlns:cc="http://creativecommons.org/ns#"
   xmlns:rdf="http://www.w3.org/1999/02/22-rdf-syntax-ns#"
   xmlns:svg="http://www.w3.org/2000/svg"
   xmlns="http://www.w3.org/2000/svg"
   xmlns:sodipodi="http://sodipodi.sourceforge.net/DTD/sodipodi-0.dtd"
   xmlns:inkscape="http://www.inkscape.org/namespaces/inkscape"
   enable-background="new 0 0 615 483"
   version="1.1"
   viewBox="0 0 297.85703 280.00003"
   xml:space="preserve"
   id="svg92"
   sodipodi:docname="decorative-ornamental-font-letter-t-111111.svg"
   width="297.85703"
   height="280.00003"
   inkscape:version="1.0.1 (3bc2e813f5, 2020-09-07)"><metadata
   id="metadata98"><rdf:RDF><cc:Work
       rdf:about=""><dc:format>image/svg+xml</dc:format><dc:type
         rdf:resource="http://purl.org/dc/dcmitype/StillImage" /><dc:title></dc:title></cc:Work></rdf:RDF></metadata><defs
   id="defs96">
	
	
	
	
	
	
	
</defs><sodipodi:namedview
   pagecolor="#ffffff"
   bordercolor="#666666"
   borderopacity="1"
   objecttolerance="10"
   gridtolerance="10"
   guidetolerance="10"
   inkscape:pageopacity="0"
   inkscape:pageshadow="2"
   inkscape:window-width="1366"
   inkscape:window-height="705"
   id="namedview94"
   showgrid="false"
   fit-margin-top="10"
   fit-margin-left="10"
   fit-margin-right="10"
   fit-margin-bottom="20"
   inkscape:showpageshadow="false"
   inkscape:zoom="1.3061355"
   inkscape:cx="211.98615"
   inkscape:cy="133.45957"
   inkscape:window-x="-8"
   inkscape:window-y="-8"
   inkscape:window-maximized="1"
   inkscape:current-layer="svg92"
   inkscape:document-rotation="0"
   lock-margins="false" />


















<g
   aria-label="t"
   style="font-style:normal;font-variant:normal;font-weight:normal;font-stretch:normal;font-size:6.66667px;line-height:1.25;font-family:'Open Sans';-inkscape-font-specification:'Open Sans, Normal';font-variant-ligatures:normal;font-variant-caps:normal;font-variant-numeric:normal;font-feature-settings:normal;text-align:start;letter-spacing:0px;word-spacing:0px;writing-mode:lr-tb;text-anchor:start;fill:#ffffff;fill-opacity:1;stroke:#000000;stroke-width:0.933082;stroke-opacity:1"
   id="text825"
   transform="matrix(1.071702,0,0,1.071733,-58.803716,-52.73242)"><path
     style="font-style:normal;font-variant:normal;font-weight:normal;font-stretch:normal;font-size:333.333px;font-family:'Apex Lake';-inkscape-font-specification:'Apex Lake';fill:#ffffff;fill-opacity:1;stroke:#000000;stroke-width:0.933082;stroke-opacity:1"
     d="m 109.19531,33.738281 c -1.11111,0 -2.5562,0.221572 -4.33398,0.666016 -1.77778,0.222223 -3.55622,0.888889 -5.333986,2 -1.55556,1.111111 -2.88889,2.667969 -4,4.667969 -1.11111,2 -1.666016,4.666666 -1.666016,8 0,1.111111 0.221566,2.554253 0.666016,4.332031 4.44444,0.222222 10.001296,0.555555 16.667966,1 v -0.332031 c 0.22223,-0.222223 0.33203,-0.445747 0.33203,-0.667969 0,-1.333333 -0.44314,-2.554905 -1.33203,-3.666016 -0.88889,-1.333333 -2.22222,-2 -4,-2 -1.77777,0 -2.88953,0.445096 -3.33398,1.333985 -0.44445,0.666667 -0.88955,1.221571 -1.33399,1.666015 -1.555556,-0.666667 -2.332028,-1.778429 -2.332028,-3.333984 v -2.332031 c 0.22223,-1.111111 0.665362,-2.111111 1.332028,-3 0.66667,-1.111111 1.66667,-2.001302 3,-2.667969 1.33333,-0.666667 3.22353,-1 5.66797,-1 4.22223,0 7.4438,1.333333 9.66602,4 2.44445,2.666667 3.66601,5.890191 3.66601,9.667969 v 2.666015 h 4 v -1.333984 c 0.22222,-0.444445 0.33399,-0.887587 0.33399,-1.332031 0,-4.000001 -0.77844,-7.223525 -2.33399,-9.667969 -1.33333,-2.444445 -3,-4.332683 -5,-5.666016 -2,-1.333333 -4,-2.111761 -6,-2.333984 -2,-0.444444 -3.44314,-0.666016 -4.33203,-0.666016 z m 105.66602,0 c -0.88889,0 -2.33399,0.221572 -4.33399,0.666016 -2,0.444445 -4,1.334636 -6,2.667969 -2,1.333333 -3.77648,3.22157 -5.33203,5.666015 -1.33333,2.444445 -2,5.666016 -2,9.666016 v 2.667969 h 4.33203 c 0,-0.444445 -0.10981,-1.001302 -0.33203,-1.667969 v -1.666016 c 0,-3.777778 1.22158,-6.88954 3.66602,-9.333984 2.44445,-2.666667 5.77778,-4 10,-4 4.44445,0 7.11111,1.223525 8,3.667969 0.88889,2.222223 1.33398,3.888889 1.33398,5 0,0.666667 -0.22352,1.333333 -0.66797,2 -0.22222,0.666667 -0.66536,1.109809 -1.33203,1.332031 -0.22223,-0.222222 -0.66731,-0.665364 -1.33398,-1.332031 -0.44444,-0.888889 -1.55621,-1.333985 -3.33399,-1.333985 -1.77778,0 -3.11111,0.554905 -4,1.666016 -0.66667,1.111111 -1,2.334636 -1,3.667969 0,0.666667 0.11177,1.109809 0.33399,1.332031 h 8.66601 c 2.66667,-0.222222 5.22352,-0.443793 7.66797,-0.666016 0.66667,-1.333333 1,-2.778429 1,-4.333984 0,-3.555556 -0.55686,-6.332031 -1.66797,-8.332031 -1.11111,-2 -2.55426,-3.556858 -4.33203,-4.667969 -1.55556,-1.111111 -3.22223,-1.777777 -5,-2 -1.77778,-0.444444 -3.22287,-0.666016 -4.33398,-0.666016 z M 88.382812,58.185547 c -0.347221,0.03472 -0.521484,0.331163 -0.521484,0.886719 -0.44445,6.222222 -1.332685,12.777122 -2.666016,19.666015 -1.111109,6.88889 -2.44444,13.667315 -4,20.333985 2.444451,0.88889 5.554252,1.332034 9.332032,1.332034 2.66667,-11.111113 7.111764,-18.777773 13.333986,-23.000003 6.22222,-4.222221 13.88889,-6.332031 23,-6.332031 h 13.66601 c 5.11111,0 8.55622,2.443143 10.33399,7.332031 1.77778,4.88889 2.66601,11.55556 2.66601,20 V 204.73828 c 0,5.77778 -0.33333,10.33269 -1,13.66602 -0.66667,3.11111 -2,5.5562 -4,7.33398 -2,1.55555 -4.77647,2.55555 -8.33203,3 -3.55555,0.44445 -8.11242,0.77778 -13.66797,1 -0.88889,0.88889 -1.33203,2.44379 -1.33203,4.66602 0,2.22222 0.44314,3.77908 1.33203,4.66797 6.88889,-0.22222 13.66732,-0.33399 20.33399,-0.33399 6.66667,-0.22222 12.77842,-0.33398 18.33398,-0.33398 5.33333,0 11.33333,0.11176 18,0.33398 6.66667,0 13.44314,0.11177 20.33203,0.33399 0.88889,-0.88889 1.33399,-2.44575 1.33399,-4.66797 0,-2.22223 -0.4451,-3.77713 -1.33399,-4.66602 -5.55555,-0.22222 -10.11045,-0.55555 -13.66601,-1 -3.33333,-0.44445 -6,-1.44445 -8,-3 -2,-1.77778 -3.33333,-4.22287 -4,-7.33398 -0.66667,-3.33333 -1,-7.88824 -1,-13.66602 V 99.404297 c 0,-8.88889 0.77842,-15.777126 2.33398,-20.666016 1.77777,-5.111115 5.22092,-7.666015 10.33203,-7.666015 h 6 c 10.44445,0 18.77778,2.10981 25,6.332031 6.44445,4.22223 10.88955,11.667314 13.33399,22.333984 1.55556,0 3.22223,-0.111754 5,-0.333984 1.77778,-0.22222 3.22287,-0.55555 4.33398,-1 -0.88889,-6.44444 -1.66731,-12.999346 -2.33398,-19.666016 -0.66667,-6.888893 -1,-13.443793 -1,-19.666015 0,-0.444445 -0.33333,-0.667969 -1,-0.667969 -2.44444,0.222222 -5.99935,0.445746 -10.66602,0.667969 -4.66667,0.222222 -9.89019,0.443793 -15.66797,0.666015 -5.77778,0.222223 -11.77778,0.443794 -18,0.666016 h -17.33203 -23.66797 -17.66601 c -6.44445,-0.222222 -12.66602,-0.443793 -18.66602,-0.666016 -6,-0.222222 -11.55686,-0.443793 -16.66797,-0.666015 -4.888886,-0.222223 -8.665358,-0.445747 -11.332028,-0.667969 -0.333333,-0.166667 -0.604167,-0.239584 -0.8125,-0.21875 z m -13.1875,8.552734 c -6.44444,0 -11.001301,1.77843 -13.667968,5.333985 -2.666667,3.333332 -4,7 -4,11 0,4.44445 1.333333,7.887591 4,10.332031 2.888889,2.44445 5.555553,3.667969 8,3.667969 3.55555,0 6.112419,-1.33333 7.667968,-4 0.222231,-0.44445 0.332032,-0.889545 0.332032,-1.333985 0,-0.66667 0.111764,-1.33333 0.333984,-2 0,-1.77778 -0.66667,-2.999345 -2,-3.666015 -1.33333,-0.66667 -2.554906,-1 -3.666016,-1 -0.88889,0 -2.000654,0.33333 -3.333984,1 -1.333334,0.44445 -1.888238,1.887591 -1.666016,4.332031 -1.111111,-0.44444 -2.222873,-1.11111 -3.333984,-2 -1.111111,-1.11111 -1.666016,-2.887581 -1.666016,-5.332031 10e-7,-3.11111 1.10981,-5.889535 3.332032,-8.333985 2.222223,-2.444441 5.445748,-3.666015 9.667968,-3.666015 2.22223,0 4.22223,0.333333 6,1 0.222231,-0.666667 0.332032,-1.333333 0.332032,-2 0,-0.888889 0.111764,-1.667318 0.333984,-2.333985 -2,-0.666667 -4.221565,-1 -6.666016,-1 z m 173.666018,0 c -1.77777,0 -2.99935,0.111763 -3.66602,0.333985 0,1.777778 0.10981,3.111111 0.33203,4 h 1.33399 c 0.66667,-0.222222 1.33333,-0.333985 2,-0.333985 4.00001,0 7.11176,1.333337 9.33398,4 2.44445,2.66667 3.66602,5.554906 3.66602,8.666016 0,2.22223 -0.66667,3.88889 -2,5 -1.11111,0.88889 -2.11111,1.55556 -3,2 0.22222,-2.44444 -0.44445,-3.999346 -2,-4.666016 -1.33333,-0.66667 -2.55491,-1 -3.66602,-1 -2,0 -3.44509,0.66667 -4.33398,2 l 1,8 c 2,1.55555 4.22156,2.333985 6.66601,2.333985 2.44445,0 5.0013,-1.223519 7.66797,-3.667969 2.66667,-2.44444 4,-5.77777 4,-10 0,-4.22222 -1.44509,-7.998699 -4.33398,-11.332031 -2.66667,-3.555555 -6.99999,-5.333985 -13,-5.333985 z M 108.19531,92.404297 c -4,0 -7.33333,0.445094 -9.999998,1.333984 -0.444439,0.88889 -0.77777,1.777126 -1,2.666016 -0.222219,0.66667 -0.55555,1.556859 -1,2.667969 1.777781,-1.11111 3.666016,-1.77778 5.666018,-2 2,-0.22222 3.88823,-0.333985 5.66601,-0.333985 5.77777,0 9.66797,1.33333 11.66797,3.999999 2.22223,2.44444 3.33203,5.22288 3.33203,8.33399 0,2.88889 -1,5.44378 -3,7.66601 -2,2 -4.22156,3 -6.66601,3 -3.55555,0 -5.88889,-0.77842 -7,-2.33398 -0.88889,-1.77777 -1.33399,-3.11111 -1.33399,-4 0.44444,0.22223 0.88954,0.33398 1.33399,0.33398 h 1.33398 c 3.77778,0 5.66602,-1.5549 5.66602,-4.66601 0,-1.77778 -0.66667,-3.0013 -2,-3.66797 -1.33333,-0.66667 -2.88824,-1 -4.66602,-1 -1.11111,0 -2.5562,0.66667 -4.33398,2 -1.77778,1.11111 -2.666018,3.22287 -2.666018,6.33398 0,3.55555 1.333328,6.33399 3.999998,8.33399 2.88889,2 5.88889,3 9,3 1.11111,0 2.44445,-0.22352 4,-0.66797 1.77778,-0.66667 3.33269,-1.55491 4.66602,-2.66602 1.55555,-1.33333 2.77712,-3 3.66601,-5 1.11111,-2 1.66797,-4.33333 1.66797,-7 0,-3.33333 -0.77843,-6.11175 -2.33398,-8.33398 -1.55555,-2.222223 -3.33399,-3.888893 -5.33399,-5.000003 -2,-1.11111 -4,-1.887581 -6,-2.332031 -2,-0.44445 -3.44314,-0.667969 -4.33203,-0.667969 z m 107.66602,0 c -1.11111,0 -2.66602,0.223519 -4.66602,0.667969 -2,0.44445 -4,1.220921 -6,2.332031 -2,1.11111 -3.77842,2.77778 -5.33398,5.000003 -1.55555,2.22223 -2.33399,5.00065 -2.33399,8.33398 0,2.66667 0.4451,5 1.33399,7 1.11111,2 2.33268,3.66667 3.66601,5 1.55555,1.11111 3.11241,1.99935 4.66797,2.66602 1.77777,0.44445 3.22092,0.66797 4.33203,0.66797 3.11111,0 6.0013,-1 8.66797,-3 2.88889,-2 4.33203,-4.77844 4.33203,-8.33399 0,-3.11111 -0.88823,-5.22287 -2.66601,-6.33398 -1.77777,-1.33333 -3.22288,-2 -4.33399,-2 -1.55555,0 -2.9987,0.33333 -4.33203,1 -1.33333,0.66667 -2,1.89019 -2,3.66797 0,3.11111 1.88825,4.66601 5.66602,4.66601 0.22223,0.22222 0.55556,0.33399 1,0.33399 0.66667,-0.22222 1.22156,-0.33399 1.66601,-0.33399 0,1.11111 -0.5549,2.44444 -1.66601,4 -0.88889,1.33333 -3.11047,2 -6.66602,2 -2.66667,0 -5,-1 -7,-3 -2,-2.22223 -3,-4.77712 -3,-7.66601 0,-3.11111 1.10981,-6.0013 3.33203,-8.66797 2.22222,-2.666673 6.11241,-4.000003 11.66797,-4.000003 4.44444,0 8.55425,1 12.33203,3 -0.22222,-0.88889 -0.44378,-1.665361 -0.66601,-2.332031 l -0.66602,-2.667969 -0.33398,0.333984 c -1.77777,-1.11111 -3.55621,-1.77778 -5.33399,-2 -1.77778,-0.22223 -3.66601,-0.333984 -5.66601,-0.333984 z m 24.66601,12.000003 c -0.88889,0.22223 -1.88889,0.33398 -3,0.33398 h -3 c 1.11111,1.77777 2.0013,4.11111 2.66797,7 0.88889,2.88889 1.33203,6.22222 1.33203,10 0,1.55555 -0.44314,3.77713 -1.33203,6.66602 -0.66667,2.66667 -2,5.33333 -4,8 -1.77778,2.66667 -4.33464,5 -7.66797,7 -3.33333,2 -7.5549,3 -12.66601,3 -5.11111,0 -8.44444,-1 -10,-3 -1.33333,-2.22222 -2,-4.22222 -2,-6 0,-1.77777 0.44509,-3.22092 1.33398,-4.33203 0.88889,-1.11111 2.11047,-1.66797 3.66602,-1.66797 2.44445,0 3.88953,1.11175 4.33398,3.33398 -2.22223,0 -3.33398,0.88825 -3.33398,2.66602 0,1.11111 0.44509,2.0013 1.33398,2.66797 0.88889,0.44445 1.88889,0.66601 3,0.66601 0.88889,0 1.88889,-0.33333 3,-1 1.11111,-0.88889 1.66602,-2.22223 1.66602,-4 0,-1.55556 -0.77844,-3.22223 -2.33399,-5 -1.33333,-2 -3.33333,-3 -6,-3 -3.77778,0 -6.44445,1 -8,3 -1.55555,2 -2.33203,4.22158 -2.33203,6.66602 0,2.88889 0.77648,5.44575 2.33203,7.66797 1.77778,2.22222 4.55622,3.77712 8.33399,4.66601 v 0.66602 c -3.77777,0.66667 -6.55621,2.22352 -8.33399,4.66797 -1.55555,2.22222 -2.33203,4.88889 -2.33203,8 0,2.22222 0.77648,4.33203 2.33203,6.33203 1.55555,2 4.22222,3 8,3 2.66667,0 4.66667,-0.88825 6,-2.66602 1.55555,-2 2.33399,-3.77842 2.33399,-5.33398 0,-1.77777 -0.55491,-2.99935 -1.66602,-3.66602 -1.11111,-0.88889 -2.11111,-1.33398 -3,-1.33398 -1.11111,0 -2.11111,0.33333 -3,1 -0.88889,0.44445 -1.33398,1.22287 -1.33398,2.33398 0,0.88889 0.33333,1.55555 1,2 0.88889,0.44444 1.77712,0.66602 2.66601,0.66602 -0.44445,2.22223 -1.99934,3.33398 -4.66601,3.33398 -3.33333,0 -5,-1.88823 -5,-5.66601 0,-2.22222 0.66667,-4.33399 2,-6.33399 1.55556,-2 4.88889,-3 10,-3 5.11111,0 9.33268,1 12.66601,3 3.33333,2 5.89019,4.33333 7.66797,7 2,2.66667 3.33333,5.4451 4,8.33399 0.88889,2.88889 1.33203,5.11045 1.33203,6.66601 0,5.11111 -0.66667,9.33269 -2,12.66602 -1.33333,3.11111 -3.10981,5.5562 -5.33203,7.33398 -2,1.77778 -4.33333,2.99935 -7,3.66602 -2.66667,0.66667 -5.33333,1 -8,1 -5.55556,0 -9.44575,-1.22157 -11.66797,-3.66602 -2.22222,-2.66667 -3.33203,-5.5549 -3.33203,-8.66601 0,-2.88889 1,-5.33399 3,-7.33399 2,-2.22223 4.33333,-3.33398 7,-3.33398 3.55555,0 5.77713,0.89019 6.66602,2.66797 1.11111,1.55555 1.66601,2.77712 1.66601,3.66601 -0.44445,-0.22222 -0.99934,-0.33398 -1.66601,-0.33398 h -1 c -3.77777,0 -5.66602,1.55686 -5.66602,4.66797 0,1.77778 0.66667,2.99934 2,3.66601 1.33333,0.66667 2.77648,1 4.33203,1 1.11111,0 2.55622,-0.5549 4.33399,-1.66601 1.77778,-1.33333 2.66601,-3.55686 2.66601,-6.66797 0,-3.55556 -1.44314,-6.33203 -4.33203,-8.33203 -2.66667,-2 -5.55686,-3 -8.66797,-3 -1.11111,0 -2.55426,0.33333 -4.33203,1 -1.55556,0.44445 -3.11242,1.33268 -4.66797,2.66601 -1.33333,1.11111 -2.5549,2.66602 -3.66601,4.66602 -0.88889,2.00001 -1.33399,4.33333 -1.33399,7 0,3.33333 0.77844,6.11176 2.33399,8.33398 1.55556,2.22222 3.33398,3.88889 5.33398,5 2,1.11111 4,1.88955 6,2.33399 2,0.44445 3.55491,0.66601 4.66602,0.66601 2,0 3.88823,-0.11176 5.66601,-0.33398 2,-0.22223 4,-0.77713 6,-1.66602 l 0.33399,0.66602 c -2.88889,3.11111 -6.22222,6.33464 -10,9.66797 -3.77777,3.11111 -7.33269,6.55425 -10.66602,10.33203 0.88889,0.66667 1.55555,1.8902 2,3.66797 2.66667,-3.11111 5.88825,-6.55621 9.66602,-10.33399 4,-3.77778 8.88823,-8.22287 14.66601,-13.33398 l 0.33399,0.33398 c -0.88889,1.77778 -1.55555,3.66602 -2,5.66602 -0.44444,1.77777 -0.66602,3.33464 -0.66602,4.66797 0,3.77778 1.33333,7.44445 4,11 2.66667,3.55556 7.22158,5.33203 13.66602,5.33203 6.44445,0 10.99934,-1.66667 13.66601,-5 2.66667,-3.55556 4,-7.33203 4,-11.33203 0,-4.44444 -1.44314,-7.88954 -4.33203,-10.33399 -2.66667,-2.44445 -5.22352,-3.66601 -7.66797,-3.66601 -5.77778,0 -8.66601,2.33333 -8.66601,7 0,1.77778 0.66667,3.11111 2,4 1.33333,0.66667 2.5549,1 3.66601,1 1.11111,0 2.33464,-0.22353 3.66797,-0.66797 1.33333,-0.66667 1.88824,-2.22157 1.66602,-4.66602 1.11111,0.44445 2.22287,1.22288 3.33398,2.33399 1.11111,0.88889 1.66602,2.55556 1.66602,5 0,3.11111 -1.11176,5.88758 -3.33399,8.33203 -2.22222,2.44444 -5.44378,3.66797 -9.66601,3.66797 -4.44444,0 -7.88954,-1.11177 -10.33399,-3.33399 -2.22222,-2.44445 -3.33203,-5.33268 -3.33203,-8.66601 0,-2.44444 1,-6.22288 3,-11.33399 0.44444,-1.33333 0.88758,-3 1.33203,-5 0.66667,-2.22222 1.22352,-4.55555 1.66797,-7 0.66667,-2.66667 1.10981,-5.22156 1.33203,-7.66601 0.44445,-2.66667 0.66797,-5.11177 0.66797,-7.33399 0,-2.22223 -0.33333,-4.66731 -1,-7.33398 -0.66667,-2.88889 -1.89019,-5.66536 -3.66797,-8.33203 -1.55555,-2.88889 -3.66536,-5.44574 -6.33203,-7.66797 -2.66667,-2.22222 -6,-3.88889 -10,-5 v -0.33203 c 4,-1.11111 7.33333,-2.77778 10,-5 2.66667,-2.44445 4.77648,-5.0013 6.33203,-7.66797 1.77778,-2.88889 3.0013,-5.66536 3.66797,-8.33203 0.66667,-2.88889 1,-5.33399 1,-7.33399 0,-2.66667 -0.33333,-5.44509 -1,-8.33398 -0.44445,-3.11111 -1.0013,-6.11111 -1.66797,-9 z m -157.666012,0.33398 c -0.44445,2.88889 -0.889544,5.77713 -1.333984,8.66602 -0.44445,2.88889 -0.666016,5.44575 -0.666016,7.66797 0,2.22222 0.33333,4.77712 1,7.66601 0.66667,2.88889 1.778435,5.77713 3.333984,8.66602 1.777781,2.66667 3.887582,5.11175 6.332032,7.33398 2.66667,2.22222 6,3.88889 9.999996,5 v 0.33399 c -3.999996,1.11111 -7.333326,2.88759 -9.999996,5.33203 -2.44445,2.22223 -4.554252,4.77908 -6.332032,7.66797 -1.555549,2.66667 -2.667314,5.44314 -3.333984,8.33203 -0.66667,2.66667 -1,5 -1,7 0,2.22223 0.221566,4.66731 0.666016,7.33398 0.44444,2.66667 0.889534,5.33333 1.333984,8 0.66667,2.44445 1.221566,4.77778 1.666016,7 0.66667,2 1.223528,3.66667 1.667968,5 0.88889,2.44445 1.443796,4.66602 1.666016,6.66602 0.44445,2 0.666016,3.55686 0.666016,4.66797 0,3.11111 -1.109802,5.88758 -3.332032,8.33203 -2.222219,2.44444 -5.555549,3.66797 -10,3.66797 -4,0 -7.223525,-1.22353 -9.667968,-3.66797 -2.222222,-2.66667 -3.332032,-5.66667 -3.332032,-9 10e-7,-2 0.554905,-3.55491 1.666016,-4.66602 1.333333,-1.11111 2.445095,-1.88954 3.333984,-2.33398 -0.222223,2.44444 0.332682,4.0013 1.666016,4.66797 1.55555,0.66667 2.88889,1 4,1 1.11111,0 2.222875,-0.33333 3.333984,-1 1.111111,-0.88889 1.666016,-2.22222 1.666016,-4 0,-4.66667 -2.778434,-7 -8.333984,-7 -2.444447,0 -4.999349,1.22156 -7.666016,3.66601 -2.666667,2.22222 -4,5.44379 -4,9.66602 0,4.22222 1.333333,8.11242 4,11.66797 2.888889,3.33333 7.333984,5 13.333984,5 6.44445,0 10.999346,-1.77844 13.666016,-5.33399 2.66667,-3.77778 4,-7.55621 4,-11.33398 0,-2.88889 -1,-6.22223 -3,-10 l 0.666016,-0.66602 c 6,5.55555 10.999996,10.33399 14.999996,14.33399 4,4 4.91971,9.97324 9.66797,10.66601 1.18859,0.17342 3.68771,-0.0748 3.08206,-1.86716 -1.6232,-4.80383 -5.08336,-7.13284 -9.75003,-11.13284 -4.66667,-4.22222 -8.666666,-8.22222 -11.999996,-12 l 0.333984,-0.33398 c 3.11111,1.55555 6.889542,2.33398 11.333982,2.33398 0.88889,0 2.33203,-0.22156 4.33203,-0.66601 2,-0.44444 4,-1.22288 6,-2.33399 2,-1.33333 3.77844,-3 5.33399,-5 1.55555,-2.22222 2.33398,-5.00065 2.33398,-8.33398 0,-2.66667 -0.55686,-4.99999 -1.66797,-7 -0.88889,-2 -2.11046,-3.55491 -3.66601,-4.66602 -1.33333,-1.33333 -2.88824,-2.22156 -4.66602,-2.66601 -1.55555,-0.66667 -2.88889,-1 -4,-1 -3.11111,0 -6.11111,1 -9,3 -2.66667,2 -3.999998,4.66667 -3.999998,8 0,3.11111 0.888238,5.33268 2.666018,6.66601 1.77778,1.33333 3.22287,2 4.33398,2 1.77778,0 3.33269,-0.33333 4.66602,-1 1.33333,-0.88889 2,-2.11045 2,-3.66601 0,-3.11111 -1.88824,-4.66797 -5.66602,-4.66797 -0.22222,-0.44445 -0.66731,-0.55425 -1.33398,-0.33203 -0.44445,0.22223 -0.88955,0.33203 -1.33399,0.33203 0,-1.11111 0.4451,-2.33269 1.33399,-3.66602 1.11111,-1.55556 3.44445,-2.33398 7,-2.33398 2.44445,0 4.66601,1.11175 6.66601,3.33398 2,2 3,4.4451 3,7.33399 0,3.11111 -1.1098,5.99934 -3.33203,8.66601 -2,2.44445 -5.8902,3.66602 -11.66797,3.66602 -2.66667,0 -5.33333,-0.33333 -7.999996,-1 -2.66667,-0.66667 -5,-1.88824 -7,-3.66602 -2,-2 -3.66667,-4.5549 -5,-7.66601 -1.33333,-3.33333 -2,-7.55686 -2,-12.66797 0,-1.55555 0.33333,-3.66536 1,-6.33203 0.88889,-2.88889 2.22222,-5.66732 4,-8.33399 2,-2.66667 4.556859,-5 7.667968,-7 3.333328,-2 7.554908,-3 12.666018,-3 5.11111,0 8.33268,1 9.66601,3 1.55555,2 2.33399,4 2.33399,6 0,1.55555 -0.4451,3.00066 -1.33399,4.33399 -0.66667,1.11111 -1.88823,1.66601 -3.66601,1.66601 -2.22222,0 -3.55555,-1.11175 -4,-3.33398 2,0 3,-0.88825 3,-2.66602 0,-1.11111 -0.4451,-1.88953 -1.33399,-2.33398 -0.88889,-0.66667 -1.77712,-1 -2.66601,-1 -1.11111,0 -2.22288,0.44509 -3.33399,1.33398 -0.88889,0.66667 -1.33203,1.88825 -1.33203,3.66602 0,1.33333 0.66667,3 2,5 1.33333,2 3.44314,3 6.33203,3 3.77777,0 6.44444,-1 8,-3 1.55555,-2.22222 2.33399,-4.4438 2.33399,-6.66602 0,-2.88889 -0.88824,-5.44379 -2.66602,-7.66601 -1.55555,-2.44445 -4.22222,-4.0013 -8,-4.66797 v -0.66602 c 3.77778,-0.88889 6.44445,-2.44379 8,-4.66601 1.77778,-2.22222 2.66602,-4.88889 2.66602,-8 0,-2.22222 -0.77844,-4.33399 -2.33399,-6.33399 -1.55556,-2 -4.22223,-3 -8,-3 -2.88889,0 -4.9987,1 -6.33203,3 -1.33333,1.77777 -2,3.44444 -2,5 0,1.77777 0.44314,3.11111 1.33203,4 1.11111,0.66667 2.22288,1 3.33399,1 0.88889,0 1.77712,-0.22156 2.66601,-0.66601 0.88889,-0.66667 1.33399,-1.55686 1.33399,-2.66797 0,-1.77777 -1.22157,-2.66602 -3.66602,-2.66602 0.66667,-2.22223 2.22157,-3.33398 4.66602,-3.33398 3.33333,0 5,1.89019 5,5.66797 0,2 -0.77844,4.10981 -2.33399,6.33203 -1.33333,2 -4.5549,3 -9.66601,3 -5.11111,0 -9.33269,-1 -12.666018,-3 -3.11111,-2 -5.667968,-4.33333 -7.667968,-7 -1.77778,-2.66667 -3.11111,-5.44314 -4,-8.33203 -0.66667,-2.88889 -1,-5.22222 -1,-7 0,-6.22222 1.223528,-11.44574 3.667968,-15.66797 h -3.333984 c -0.88889,0 -1.88889,-0.22158 -3,-0.66602 z m -23.666016,10 c -4.222222,0 -6.333984,2.11177 -6.333984,6.33399 0,2.44445 1,4.88759 3,7.33203 2,2.44445 4.445095,4.5562 7.333984,6.33398 2.888889,1.77777 5.777126,3.22288 8.666016,4.33399 2.88889,1.11111 5.22222,1.66601 7,1.66601 1.55555,0 2.443786,-0.11175 2.666016,-0.33398 -1.55556,-1.11111 -3.332032,-2.55425 -5.332032,-4.33203 -2,-1.77778 -3.556858,-4.11111 -4.667968,-7 -1.77778,-3.11111 -3.444444,-6.22288 -5,-9.33399 -1.333333,-3.33333 -3.776476,-5 -7.332032,-5 z m 204.999998,1 c -3.33333,0 -5.77843,1.66667 -7.33398,5 -1.33333,3.11111 -2.77843,6.22288 -4.33399,9.33399 -1.33333,2.88889 -3,5.22222 -5,7 -1.77778,1.77778 -3.55426,3.11111 -5.33203,4 0.44444,0.44445 1.44444,0.66601 3,0.66601 1.77777,0 4.11111,-0.5549 7,-1.66601 2.88889,-1.11111 5.77713,-2.55622 8.66602,-4.33399 2.88889,-2 5.33398,-4.11175 7.33398,-6.33398 2,-2.44444 3,-4.88758 3,-7.33203 0,-4.22222 -2.33333,-6.33399 -7,-6.33399 z m -216.333982,25 c -2.888889,0 -6.110461,0.55491 -9.666016,1.66602 -3.555555,1.11111 -5.333984,3.66797 -5.333984,7.66797 0,2 0.445095,3.5549 1.333984,4.66601 1.111111,1.11111 2.444445,1.99935 4,2.66602 1.555555,0.66667 3.222223,1.11175 5,1.33398 h 4.666016 c 1.555555,0 3.333984,-0.22156 5.333984,-0.66601 l 6.666016,-2 c 2.222223,-0.66667 4.333984,-1.33333 6.333984,-2 2.222227,-0.66667 3.998702,-1.11177 5.332032,-1.33399 1.11111,-0.22223 2.44444,-0.44379 4,-0.66601 1.33333,-0.22222 3.111764,-0.44574 5.333984,-0.66797 2.22222,-0.44444 5.000654,-0.88758 8.333984,-1.33203 -3.333329,-0.44445 -6.111764,-0.77778 -8.333984,-1 -2.22222,-0.44445 -4.000654,-0.77778 -5.333984,-1 -1.55556,-0.22222 -2.88889,-0.44574 -4,-0.66797 -1.33333,-0.22222 -3.109804,-0.66536 -5.332032,-1.33203 -2,-0.88889 -4.111761,-1.66732 -6.333984,-2.33399 -2.222222,-0.88889 -4.443793,-1.55556 -6.666016,-2 -2,-0.66667 -3.778429,-1 -5.333984,-1 z m 228.333982,0.33399 c -1.55555,0 -3.44574,0.33333 -5.66797,1 -2,0.44445 -4.22157,0.99934 -6.66601,1.66601 -2.22223,0.66667 -4.33399,1.33333 -6.33399,2 -2,0.66667 -3.66667,1.11177 -5,1.33399 -1.11111,0.22222 -2.44445,0.44378 -4,0.66601 -1.33333,0.44444 -3.22156,0.88954 -5.66601,1.33399 -2.22222,0.22222 -4.88889,0.55555 -8,1 6,0.88889 10.5549,1.55555 13.66601,2 1.55555,0.22222 2.88889,0.44378 4,0.66601 1.33333,0.22222 3,0.77713 5,1.66602 2,0.66667 4.11176,1.44509 6.33399,2.33398 2.44444,0.66667 4.66601,1.33333 6.66601,2 2.22223,0.44444 4.11242,0.66602 5.66797,0.66602 2.88889,0 6.11046,-0.55491 9.66602,-1.66602 3.55555,-1.11111 5.33398,-3.66601 5.33398,-7.66601 0,-4 -1.77843,-6.4451 -5.33398,-7.33399 -3.55556,-1.11111 -6.77713,-1.66601 -9.66602,-1.66601 z M 78.861328,158.4043 c -1.77778,0 -4.11111,0.55686 -7,1.66797 -2.88889,1.11111 -5.777126,2.66601 -8.666016,4.66601 -2.888888,1.77777 -5.333984,3.88954 -7.333984,6.33399 -2,2.22222 -3,4.55555 -3,7 0,4.22222 2.333333,6.33203 7,6.33203 3.111111,0 5.444445,-1.55491 7,-4.66602 1.555551,-3.33333 3.110456,-6.5549 4.666016,-9.66601 1.33333,-2.88889 2.890198,-5.22222 4.667968,-7 2,-1.77778 3.776472,-3.22288 5.332032,-4.33399 -0.22223,-0.22223 -1.110466,-0.33398 -2.666016,-0.33398 z m 166.333982,1 c -1.55556,0 -2.55556,0.11175 -3,0.33398 1.77777,1.11111 3.66602,2.55621 5.66602,4.33399 2,1.77778 3.5549,4.11111 4.66601,7 1.77778,3.11111 3.33464,6.33268 4.66797,9.66601 1.33333,3.11111 3.77648,4.66602 7.33203,4.66602 4.44445,0 6.66797,-2.22158 6.66797,-6.66602 0,-2.44445 -1,-4.77778 -3,-7 -2,-2.44445 -4.44509,-4.5562 -7.33398,-6.33398 -2.88889,-1.77777 -5.77713,-3.22092 -8.66602,-4.33203 -2.88889,-1.11111 -5.22223,-1.66797 -7,-1.66797 z m -141.66797,80.66797 c -2.44445,0 -4.666012,1 -6.666012,3 -2,2 -3,4.44314 -3,7.33203 0,3.33333 0.554906,6 1.666016,8 1.11111,2.22222 2.44444,3.77908 4,4.66797 1.777766,1.11111 3.556206,1.77778 5.333986,2 1.77778,0.44445 3.22287,0.66601 4.33398,0.66601 0.88889,0 2.33203,-0.22156 4.33203,-0.66601 2,-0.44444 4,-1.33464 6,-2.66797 2,-1.11111 3.66667,-2.88758 5,-5.33203 1.55555,-2.22222 2.33399,-5.33399 2.33399,-9.33399 0.12413,-1.35647 0.81982,-3.2484 -0.33399,-3.66601 -1.77306,-0.64174 -3.35343,0.48701 -4,4 0,3.55556 -1.22156,6.55556 -3.66601,9 -2.22222,2.66667 -5.44379,4 -9.66602,4 -2.22222,0 -4.00065,-0.33333 -5.33398,-1 -1.11111,-0.66667 -1.99935,-1.55686 -2.66602,-2.66797 -0.66667,-0.88889 -1.11176,-1.77713 -1.333982,-2.66602 v -2.33398 c 0,-1.33333 0.554902,-2.33333 1.666012,-3 0.44444,0.44444 0.88954,1.0013 1.33399,1.66797 0.44445,0.66667 1.55621,1 3.33398,1 1.77778,0 3.11111,-0.55686 4,-1.66797 0.88889,-1.11111 1.33203,-2.33269 1.33203,-3.66602 0,-1.33333 -0.66667,-2.77843 -2,-4.33398 -1.11111,-1.55556 -3.11111,-2.33203 -6,-2.33203 z m 117,0.33203 c -2.88889,0 -4.9987,0.77843 -6.33203,2.33398 -1.11111,1.33333 -1.66797,2.66667 -1.66797,4 0,3.55555 1.66667,5.33399 5,5.33399 1.77778,0 2.88955,-0.22353 3.33399,-0.66797 0.66667,-0.66667 1.11175,-1.22157 1.33398,-1.66602 1.55555,0.44445 2.33203,1.44445 2.33203,3 0,0.44445 -0.10981,1.11111 -0.33203,2 0,1.11111 -0.33333,2.11111 -1,3 -0.66667,1.11111 -1.66667,1.99935 -3,2.66602 -1.33333,0.66667 -3.11175,1 -5.33398,1 -4.22222,0 -7.55555,-1.33333 -10,-4 -2.44444,-2.44445 -3.66602,-5.44445 -3.66602,-9 0,-1.11111 0.22158,-2.55425 0.66602,-4.33203 h -4.33399 c -0.22222,0.88889 -0.33203,2.33203 -0.33203,4.33203 0,4 0.66667,7.11176 2,9.33398 1.55555,2.44445 3.33203,4.22288 5.33203,5.33399 2,1.33333 4,2.1098 6,2.33203 2,0.44444 3.4451,0.66797 4.33399,0.66797 1.11111,0 2.5562,-0.22353 4.33398,-0.66797 1.77777,-0.22223 3.44444,-0.88889 5,-2 1.77777,-1.11111 3.22092,-2.66602 4.33203,-4.66602 1.11111,-1.77778 1.66797,-4.33268 1.66797,-7.66601 0,-3.11111 -1,-5.66797 -3,-7.66797 -2,-2 -4.22352,-3 -6.66797,-3 z"
     transform="translate(31.805631,25.261887)"
     id="path814"
     inkscape:connector-curvature="0"
     sodipodi:nodetypes="sccsscccscsccsccsscscccscscsssscscccscscscccscscccssccscccccssscssccscsccsccsccccsscsscccccscssccccscccscscscscsscccscscscsscccscscccsccscscsscccsscscsccssssscscscccscsssssscscccscscsssccccscssscccccscsccsccsscssscscscscsssccccssscscscsccsscssccsccsscscsccssssscscscccscscsccccccccccscscscsscscccssscsccccsccccccccsccccsscccccccscccccssscscccscsscscscsccsascccscccscccscssscsccccscscssccscccscscscscscssscsccccscscscscscsscscccscscssccsscsccssccccssccssssscscscccccccccccccssccscccccccccssscsssccssccccsscsccssccssssscccsccccaccscccscsssscsscssscsccsscsccscccscccsss" /></g>




<g transform="translate(10, 268.00003)">  <path
     id="path833"
     style="font-size:11px;fill:#bbbbbb"
     d="m 47.099139,1 c 0,2.785807 0,5.571615 0,8.357422 0.336589,0 0.673177,0 1.009766,0 0,-1.492839 0,-2.985677 0,-4.478516 0.734878,-0.63751 2.306024,-1.222982 2.848262,-0.08188 0.278327,0.918406 0.103034,1.896215 0.147834,2.844253 0,0.572046 0,1.144093 0,1.716139 0.336588,0 0.673177,0 1.009765,0 -0.04032,-1.586492 0.0905,-3.185124 -0.08604,-4.763334 -0.263861,-1.225268 -1.77799,-1.757192 -2.837556,-1.214394 -0.475175,0.186034 -1.286643,0.921151 -1.082273,-0.0062 0,-0.791155 0,-1.582311 0,-2.373467 -0.336584,0 -0.673195,0 -1.009763,0 z m 40.878907,0 c 0,0.866536 0,1.733073 0,2.599609 -1.267117,-0.782933 -3.219192,-0.430669 -3.852886,1.006676 -0.667723,1.336008 -0.576271,3.099777 0.360774,4.283954 0.906871,0.930935 2.547941,0.783098 3.411106,-0.125578 -0.0059,0.516749 0.258965,0.694173 0.780978,0.592761 0.450356,0.147098 0.283244,-0.323271 0.309793,-0.59998 0,-2.585814 0,-5.171628 0,-7.757442 -0.336588,0 -0.673177,0 -1.009765,0 z M 4.0815615,1.214844 c -1.270503,-0.05781 -2.818921,0.649361 -2.9887349,2.043628 -0.20654812,1.167321 0.7564776,2.214186 1.8700399,2.39622 0.9546903,0.250777 2.038458,0.16718 2.864789,0.786714 0.807458,0.95514 -0.335077,2.248639 -1.416056,2.125769 C 3.2121188,8.678893 2.013116,8.238225 1.0569583,7.53125 0.94800728,8.29909 0.89371398,9.151735 1.8828985,9.184181 3.3532105,9.640226 5.1525995,9.730388 6.4263825,8.736633 7.4106285,7.904292 7.5336745,6.057789 6.3005025,5.390254 5.1351145,4.660262 3.590645,4.994686 2.4640453,4.203468 1.7046717,3.369423 2.5975009,2.109131 3.6176791,2.16804 4.7554905,2.011058 5.9155785,2.388767 6.8503055,3.029297 6.9592325,2.289211 6.9928105,1.477595 6.0293245,1.476937 5.3965525,1.299278 4.7388495,1.210035 4.0815615,1.214844 Z m 22.2089845,0 c -1.709272,-0.09554 -3.479224,1.088445 -3.763434,2.832548 -0.432259,1.759773 -0.06573,4.017426 1.646895,4.966793 1.358741,0.736758 3.05146,0.590083 4.416527,-0.05214 0.680945,0.03217 0.625243,-2.018154 -0.120991,-1.103607 C 27.741644,8.497325 26.686445,8.667797 25.744949,8.543296 24.617107,8.4195 23.779515,7.455695 23.583414,6.374468 23.286579,5.047039 23.521074,3.377321 24.704374,2.545893 25.971075,1.760872 27.664504,2.126257 28.755674,3.052942 29.266855,3.256272 28.968358,2.14447 28.92255,1.881594 28.111496,1.465748 27.205928,1.210082 26.290546,1.214841 Z m 41.792968,0 c -1.270503,-0.05781 -2.818921,0.649361 -2.988735,2.043628 -0.206221,1.166571 0.755412,2.214135 1.868737,2.396148 0.955154,0.250725 2.038998,0.167842 2.866092,0.786786 0.803825,0.9559 -0.334598,2.248888 -1.416223,2.12578 C 67.213312,8.678851 66.014146,8.237569 65.056958,7.53125 64.952671,8.299464 64.89433,9.151633 65.884846,9.184181 67.355158,9.640226 69.154547,9.730388 70.428331,8.736633 71.412576,7.904292 71.535622,6.057789 70.30245,5.390254 69.137062,4.660262 67.592592,4.994686 66.465992,4.203468 65.706619,3.369423 66.599448,2.109131 67.619626,2.16804 68.757438,2.011058 69.917526,2.388767 70.852253,3.029297 70.96118,2.289211 70.994758,1.477595 70.031272,1.476936 69.398503,1.299278 68.7408,1.210035 68.083514,1.214844 Z m 22.837891,0.0918 c 0,0.348958 0,0.697917 0,1.046875 0.379558,0 0.759117,0 1.138675,0 0,-0.348959 0,-0.697919 0,-1.046878 -0.379558,1e-6 -0.759117,2e-6 -1.138675,3e-6 z M 37.054218,1.632815 c 0,0.57487 0,1.14974 0,1.72461 -0.890141,-0.460911 -0.977874,1.226957 -0.08956,0.84039 0.209458,0.59319 0.04113,1.317016 0.08689,1.961159 0.03983,0.871543 -0.128025,1.830592 0.318555,2.618498 0.605933,0.794843 1.91704,0.937254 2.724374,0.436826 C 40.553672,8.20257 39.57449,8.470474 38.987776,8.641231 38.033387,8.527186 38.001433,7.440683 38.063991,6.691421 c 0,-0.828133 0,-1.656266 0,-2.484399 0.694662,0 1.389323,0 2.083985,0 0.127125,-0.550494 -0.03471,-1.01834 -0.649972,-0.849609 -0.478004,0 -0.956009,0 -1.434014,0 0,-0.57487 0,-1.14974 0,-1.72461 -0.336592,5e-6 -0.673188,2e-6 -1.009778,1.2e-5 z m 35.792968,0 c 0,0.57487 0,1.14974 0,1.72461 -0.890141,-0.460911 -0.977872,1.226958 -0.08956,0.840389 0.209456,0.593191 0.04113,1.317016 0.08689,1.96116 0.03983,0.871543 -0.128025,1.830592 0.318555,2.618498 0.605932,0.794843 1.917039,0.937255 2.724373,0.436826 0.459195,-1.011729 -0.519987,-0.743824 -1.106701,-0.573067 -0.954391,-0.114044 -0.98634,-1.200549 -0.923786,-1.94981 0,-0.828133 0,-1.656266 0,-2.484399 0.694661,0 1.389323,0 2.083984,0 0.127125,-0.550494 -0.03471,-1.01834 -0.649972,-0.849609 -0.478004,0 -0.956009,0 -1.434013,0 0,-0.57487 0,-1.14974 0,-1.72461 -0.336591,5e-6 -0.673187,2e-6 -1.009776,1.2e-5 z M 18.808124,3.191409 C 18.094905,2.935351 17.239001,4.03514 16.807568,3.745844 16.924933,3.064297 15.42404,3.190079 15.784686,3.907384 c 0,1.81668 0,3.633361 0,5.450041 0.336589,0 0.673177,0 1.009766,0 0,-1.492839 0,-2.985677 0,-4.478516 0.735405,-0.637705 2.305453,-1.222485 2.849218,-0.08209 0.278696,0.901617 0.104456,1.862968 0.148831,2.794465 0,0.588713 0,1.177425 0,1.766138 0.336588,0 0.673177,0 1.009765,0 -0.04399,-1.593518 0.09877,-3.20141 -0.09401,-4.785076 -0.20719,-0.835885 -1.034297,-1.45801 -1.900131,-1.38094 z m 37.74414,0 c -1.521655,-0.106782 -2.870485,1.256511 -2.903391,2.752487 -0.187662,1.362639 0.449907,2.994629 1.887441,3.369754 1.127624,0.363449 2.364488,0.153591 3.426107,-0.321459 0,-0.367188 0,-0.734375 0,-1.101563 C 57.907373,8.60552 56.316536,9.000861 55.260559,8.083505 54.886278,7.776964 54.254723,6.45525 55.061618,6.462891 c 1.339981,0 2.679962,0 4.019943,0 C 59.160221,5.347343 58.934457,3.952653 57.79557,3.440653 57.409264,3.256935 56.977013,3.191152 56.552264,3.191409 Z m 39.789067,0 c -1.43435,-0.105366 -2.683091,1.182808 -2.741489,2.580836 -0.215182,1.416573 0.332234,3.201116 1.850159,3.631665 1.41416,0.476399 3.21103,-0.333712 3.50065,-1.869901 0.430759,-1.474988 0.0677,-3.439789 -1.4614,-4.123733 -0.36119,-0.15464 -0.75631,-0.220409 -1.14792,-0.218867 z m 16.300779,0 c -1.43435,-0.105366 -2.6831,1.182806 -2.74149,2.580836 -0.21518,1.416573 0.33223,3.201117 1.85016,3.631665 1.41416,0.476399 3.21103,-0.333712 3.50065,-1.869901 0.43076,-1.474988 0.0677,-3.439789 -1.4614,-4.123733 -0.36119,-0.15464 -0.75631,-0.220409 -1.14792,-0.218867 z m 7.2832,0 c -0.69559,-0.265373 -1.51917,0.857085 -1.9322,0.554435 0.11735,-0.681549 -1.38352,-0.555761 -1.02288,0.16154 0,1.81668 0,3.633361 0,5.450041 0.33659,0 0.67318,0 1.00977,0 0,-1.492839 0,-2.985677 0,-4.478516 0.69289,-0.640703 2.26346,-1.226266 2.74185,-0.07252 0.2374,0.922549 0.08,1.890099 0.12142,2.834903 0,0.572045 0,1.14409 0,1.716135 0.33659,0 0.67318,0 1.00977,0 -0.0184,-1.484296 0.0406,-2.969838 -0.0373,-4.453125 0.70054,-0.647981 2.28723,-1.268386 2.77851,-0.09505 0.23758,0.921564 0.0806,1.88819 0.12187,2.832036 0,0.572045 0,1.14409 0,1.716135 0.33659,0 0.67317,0 1.00976,0 -0.0368,-1.575996 0.0821,-3.161996 -0.0772,-4.731206 -0.19216,-1.116344 -1.45733,-1.724181 -2.48513,-1.365937 -0.77965,0.178711 -1.55659,1.282397 -2.09702,0.257269 -0.33141,-0.229515 -0.74,-0.337547 -1.14122,-0.326142 z M 32.478046,3.212899 C 31.83872,3.35545 30.468978,3.021271 30.522724,4.017333 c -0.153066,0.951473 1.001736,0.0084 1.530921,0.112201 0.701846,-0.07327 1.710297,-0.05734 1.99654,0.727327 0.174575,1.052501 -1.227212,0.402038 -1.837139,0.694747 -0.996071,0.09102 -2.155836,0.680376 -2.219204,1.801023 -0.147918,1.103215 0.758253,2.235243 1.909329,2.172302 0.780462,0.151097 1.757244,-0.583619 2.18709,-0.693631 -0.342005,0.814461 1.426891,0.762288 0.996486,-0.075 -0.03395,-1.410695 0.09441,-2.837608 -0.08715,-4.237248 C 34.664798,3.459355 33.464183,3.167251 32.478044,3.2129 Z m 11.404296,0.0059 c -1.504029,-0.1101 -2.896586,1.182736 -2.926571,2.687182 -0.176355,1.346973 0.370407,3.009517 1.799543,3.420825 1.006432,0.331935 2.126029,0.140974 3.048904,-0.346288 0,-0.370443 0,-0.740885 0,-1.111328 C 44.92866,8.497487 43.615859,9.003733 42.669548,8.234348 41.817468,7.402856 41.79671,5.973359 42.296661,4.953214 42.859892,3.853682 44.354119,3.932664 45.266704,4.515 45.797582,5.008321 45.862768,4.730534 45.804218,4.189913 46.002944,3.532111 45.205541,3.487446 44.749673,3.325198 44.466104,3.256018 44.1745,3.216812 43.882342,3.218799 Z m 63.195318,0 c -1.50374,-0.109716 -2.89438,1.183882 -2.92622,2.687075 -0.17586,1.346872 0.37216,3.007709 1.79939,3.421001 1.00705,0.332174 2.12691,0.140147 3.05065,-0.346357 0,-0.370443 0,-0.740885 0,-1.111328 -0.85579,0.602843 -2.08812,1.11006 -3.04591,0.433796 -0.97471,-0.825288 -0.99108,-2.4035 -0.39943,-3.455619 0.65696,-1.063404 2.14404,-0.856747 3.04678,-0.254061 0.55917,0.574537 0.36898,-0.179964 0.39856,-0.553388 0.0839,-0.665216 -0.97239,-0.606427 -1.42416,-0.786129 -0.1654,-0.02376 -0.33253,-0.03607 -0.49966,-0.03499 z M 8.7807805,3.357471 c 0.04122,1.588588 -0.09266,3.189826 0.08835,4.769773 0.2882975,1.277783 1.9188885,1.782465 2.9848915,1.142565 0.570565,-0.314218 0.986078,-0.69488 1.039564,0.10363 0.612721,0.09893 1.075923,-0.03721 0.904769,-0.715925 0,-1.766681 0,-3.533362 0,-5.300043 -0.336589,0 -0.673177,0 -1.009766,0 0,1.49349 0,2.986979 0,4.480469 C 12.049818,8.472357 10.472687,9.063989 9.935767,7.91136 9.659305,7.011411 9.836127,6.052926 9.790541,5.123616 c 0,-0.588714 0,-1.177427 0,-1.766141 -0.336588,0 -0.673175,0 -1.0097625,0 z m 51.8320305,0 c 0,2 0,4 0,6 0.336589,0 0.673177,0 1.009766,0 0,-1.419937 0,-2.839875 0,-4.259812 C 62.305908,4.248182 63.623484,4.470105 64.373218,4.285654 64.662142,3.202819 63.474485,3.180188 62.769621,3.532115 62.33026,3.657729 61.329158,4.669937 61.650752,3.548925 61.578242,3.173842 60.901187,3.422475 60.612811,3.357471 Z m 16.503907,0 c 0.04121,1.588688 -0.09266,3.190025 0.08837,4.770072 0.288873,1.277581 1.919942,1.782057 2.986002,1.1425 0.570429,-0.314472 0.984752,-0.694831 1.038441,0.103396 0.612721,0.09893 1.075923,-0.03721 0.904769,-0.715925 0,-1.766681 0,-3.533362 0,-5.300043 -0.336589,0 -0.673177,0 -1.009766,0 0,1.49349 0,2.986979 0,4.480469 -0.737676,0.635545 -2.315168,1.225256 -2.851584,0.0736 -0.275539,-0.900165 -0.09889,-1.858559 -0.144511,-2.787924 0,-0.588714 0,-1.177427 0,-1.766141 -0.337239,0 -0.674478,0 -1.011717,0 z m 13.86914,0 c 0,2 0,4 0,6 0.336587,0 0.673175,0 1.009762,0 0,-2 0,-4 0,-6 -0.336587,0 -0.673175,0 -1.009762,0 z m -34.488281,0.66597 c 0.834454,-0.299054 2.115691,1.166553 1.301584,1.666015 -1.045841,0 -2.091681,0 -3.137522,0 0.03552,-0.931763 0.895214,-1.740889 1.835938,-1.666015 z m 39.843754,0.03711 c 1.27816,-0.08268 1.86571,1.379182 1.72663,2.457497 0.1044,1.157321 -0.86159,2.466524 -2.11858,2.102129 -1.08783,-0.246126 -1.39757,-1.435427 -1.33929,-2.408618 -0.0443,-0.944333 0.47196,-2.10084 1.54394,-2.143186 z m 16.300779,0 c 1.27817,-0.08269 1.86571,1.379181 1.72663,2.457497 0.10438,1.157271 -0.86148,2.466417 -2.11844,2.102171 -1.08845,-0.245686 -1.39611,-1.435626 -1.33748,-2.408502 -0.0438,-0.943654 0.47077,-2.100327 1.54223,-2.143379 z m -26.097658,0.05469 c 0.586064,0.02158 1.671157,0.05379 1.433594,0.922208 0,0.947805 0,1.895609 0,2.843414 C 87.206225,8.596336 85.56361,8.983149 85.022883,7.812673 84.602816,6.825616 84.604605,5.534304 85.26489,4.653333 85.583832,4.295926 86.065339,4.090903 86.544452,4.115238 Z M 34.085468,6.210945 c 0,0.55664 0,1.113281 0,1.669921 -0.771631,0.679272 -2.403138,1.171243 -2.999156,0.05689 -0.341792,-1.047058 0.799111,-1.661463 1.692306,-1.626694 0.434258,-0.04959 0.871322,-0.06576 1.30685,-0.100121 z m 66.841792,1.615234 c 0,0.510417 0,1.020833 0,1.53125 0.42774,0 0.85547,0 1.28321,0 0,-0.510417 0,-1.020833 0,-1.53125 -0.42774,0 -0.85547,0 -1.28321,0 z" />
</g></svg>
